<svg xmlns="http://www.w3.org/2000/svg" xmlns:xlink="http://www.w3.org/1999/xlink" width="587.458" height="589.815" viewBox="0 0 587.458 589.815"><defs><style>.a,.ad,.ai,.aj,.v{fill:none;}.b{fill:#6774ff;}.c{fill:#fd495c;}.d{fill:#febb46;}.ac,.ag,.e{fill:#fff;}.f{fill:#fa9e2d;}.g{fill:#ff911d;}.h{fill:#020089;}.i{fill:#f1f1f1;}.j{fill:#f45e29;}.k{fill:#c5d6e4;}.l{fill:#ff7240;}.m{fill:#d9d8d6;}.n{fill:#eaeaea;}.o{fill:#dedede;}.p{fill:#6574ff;}.q{fill:#f1bcb4;}.r{fill:#505cd4;}.s{fill:#1631a4;}.t{fill:#e9a99f;}.u{fill:#e9501a;}.aj,.v{stroke:#fff;stroke-width:0.4px;}.w{fill:#f3b85c;}.x{fill:#ffc988;}.y{fill:#2d2a51;}.z{fill:#1b1736;}.aa{clip-path:url(#a);}.ab{fill:url(#b);}.ac{opacity:0.34;}.ad{stroke:#1b1736;stroke-miterlimit:10;stroke-width:0.209px;}.ae{fill:#c12633;}.ae,.af,.ag{fill-rule:evenodd;}.af{fill:#da4559;}.ah{fill:#ee863f;}.ah,.ai{opacity:0.5;mix-blend-mode:multiply;isolation:isolate;}.ai{stroke:#ee863f;stroke-width:0.283px;}.ai,.aj{stroke-linecap:round;stroke-linejoin:round;}</style><clipPath id="a"><rect class="a" width="22.363" height="41.207"/></clipPath><linearGradient id="b" x1="0.827" y1="-0.473" x2="0.097" y2="0.77" gradientUnits="objectBoundingBox"><stop offset="0" stop-color="#e95d29"/><stop offset="1" stop-color="#e8803f" stop-opacity="0"/></linearGradient></defs><g transform="translate(-636.023 -105)"><g transform="translate(-46.028 -77.626)"><g transform="translate(682.051 171.257)"><g transform="translate(75.111 372.314)"><path class="b" d="M1036.626,885.176a43.722,43.722,0,1,1-46.409-43.636c.888-.059,1.787-.084,2.69-.084a43.713,43.713,0,0,1,43.72,43.72Z" transform="translate(-949.19 -841.456)"/><path class="c" d="M1084.292,1042.267c-3.522,1.044-3.131,3.131-1.827,3.523s6.262,0,4.566-1.761S1084.292,1042.267,1084.292,1042.267Z" transform="translate(-1034.711 -971.227)"/><path class="d" d="M985.158,887.926c-2.01,6.224.563,27.42-8.307,25.959s-20.564-2.92-18.006,2.832a12.09,12.09,0,0,1-.065,10.361,43.721,43.721,0,0,1,8.942-63.06s11.5,4,6.52,6.925-15.214,6.578-9.732,10.6,11.329,6.344,4.02,9.751-7.579,15.484.687,11.731,7.9-16.08,11.556-19.146S987.169,881.7,985.158,887.926Z" transform="translate(-949.19 -856.036)"/><path class="d" d="M1080.883,902.373a11.412,11.412,0,0,0-3.983,2.768c-2.088,2.33-4.461,5.822-2.539,8.116,3.106,3.708,6.177-2.505,7.931,1.149s8.332-5.481,9.429-8.771-2.96-12.425-9.429-10.6-3.363,2.1-1.17,4.8C1082.31,901.295,1081.7,902.017,1080.883,902.373Z" transform="translate(-1029.622 -875.928)"/><path class="d" d="M1086.064,852.1c-.117,1.1-.786,3.56-4.308,5.372-4.66,2.394-6.392-.99-10.536-6.713s-11.45,3.044-18.394,5.237-2.679-4.02.61-5.117,1.342-9.341,1.342-9.341c.888-.059,1.787-.084,2.69-.084A43.558,43.558,0,0,1,1086.064,852.1Z" transform="translate(-1013.75 -841.456)"/><path class="d" d="M1078.047,1020.618a43.777,43.777,0,0,1-44.839,10.452,18.564,18.564,0,0,1,2.409-4.356,34.761,34.761,0,0,0,5.413-8.925s6.874-2.876,6.487-7.627,4.32-10.416,5.712-4.569,14.483,17.992,18.262,15.024S1078.047,1020.618,1078.047,1020.618Z" transform="translate(-1003.485 -945.919)"/><path class="d" d="M1120.279,935.314c.487-.024,7.674,3.874,5.36,5.214s-10.233,1.1-7.065,5.969,5.847,7.309-2.68,9.38-14.082-2.071-16.543,0-.633-5.965,3.509-10.048S1120.279,935.314,1120.279,935.314Z" transform="translate(-1045.511 -902.11)"/><path class="e" d="M1107.162,875.527s8.633-4.788,14.431-.908.2,14.385-16.669,27.642-3.742.627-5.059-.588-16.163,14.3-18.552,12.7,32.582-29.637,33.283-33.1S1107.162,875.527,1107.162,875.527Z" transform="translate(-1034.497 -861.907)"/></g><g transform="translate(289.683 28)"><path class="d" d="M1320.805,368.435a17.74,17.74,0,1,1-18.83-17.7c.36-.024.725-.034,1.091-.034a17.736,17.736,0,0,1,17.739,17.739Z" transform="translate(-1285.329 -350.696)"/><path class="c" d="M1369.848,477.245c-1.429.423-1.27,1.27-.741,1.429s2.541,0,1.853-.715S1369.848,477.245,1369.848,477.245Z" transform="translate(-1349.731 -448.421)"/><path class="f" d="M1299.923,374.615c-.815,2.525.228,11.126-3.37,10.532s-8.344-1.185-7.306,1.149a4.905,4.905,0,0,1-.027,4.2,17.739,17.739,0,0,1,3.628-25.586s4.667,1.624,2.645,2.81-6.173,2.669-3.949,4.3,4.6,2.574,1.631,3.956-3.075,6.283.279,4.76,3.206-6.524,4.688-7.768S1300.738,372.089,1299.923,374.615Z" transform="translate(-1285.329 -361.676)"/><path class="f" d="M1366.7,387.385a4.632,4.632,0,0,0-1.616,1.123c-.847.945-1.81,2.362-1.03,3.293,1.26,1.5,2.506-1.016,3.218.466s3.38-2.224,3.825-3.559-1.2-5.041-3.825-4.3-1.364.853-.475,1.946C1367.277,386.948,1367.028,387.241,1366.7,387.385Z" transform="translate(-1345.9 -376.655)"/><path class="f" d="M1363.287,355.015a2.852,2.852,0,0,1-1.749,2.18c-1.89.971-2.593-.4-4.275-2.724s-4.646,1.235-7.463,2.125-1.087-1.631.248-2.076.544-3.79.544-3.79c.36-.024.725-.034,1.091-.034A17.673,17.673,0,0,1,1363.287,355.015Z" transform="translate(-1333.947 -350.696)"/><path class="f" d="M1356.469,459.671a17.762,17.762,0,0,1-18.193,4.241,7.533,7.533,0,0,1,.977-1.767,14.107,14.107,0,0,0,2.2-3.621s2.789-1.167,2.632-3.095,1.753-4.226,2.318-1.853,5.876,7.3,7.409,6.1A1.909,1.909,0,0,1,1356.469,459.671Z" transform="translate(-1326.216 -429.362)"/><path class="f" d="M1388.2,409.844c.2-.01,3.114,1.572,2.175,2.116s-4.152.445-2.867,2.422,2.373,2.966-1.087,3.806-5.714-.84-6.712,0-.257-2.421,1.424-4.077S1388.2,409.844,1388.2,409.844Z" transform="translate(-1357.864 -396.372)"/><path class="e" d="M1379.053,371.624s3.5-1.942,5.855-.369.082,5.836-6.763,11.215-1.519.254-2.053-.238-6.558,5.8-7.527,5.154,13.22-12.025,13.5-13.429S1379.053,371.624,1379.053,371.624Z" transform="translate(-1349.57 -366.097)"/></g><g transform="translate(57.096 90.497)"><path class="e" d="M1152.141,713.7s-6.208-50.033-31.789-70.28-60.9-37-44.625-43.869,10.8-15.178-4.132-12.407-14.933-12.209,21.789-19.962,86.688-8.446,87.341-15.375-17.641-11.085-40.02-6.236-20.16-18.819,22.691-22.864,192.387-2.688,245.143,15.285-29.886-4.477-85.817-6.412-148.25-6.37-149.647,0,38.1,2.656,38.789,18.023-65.822,21.9-80.373,23.138,10.955,23.575-4.955,26.43,33.137,20.591,48.543,39.409,44.056,58.856,44.056,58.856l-61.894,14Z" transform="translate(-1062.229 -520.825)"/><g transform="translate(77.07 125.069)"><path class="d" d="M1251.473,729.921c-4.124-13.188-23.609-28.619-40.978-32.961s-58.789-26.722-49.1-13.361,5.82,49.481,7.349,71.481c.731,10.522,13.6,25.334,13.6,25.334,7.553,7.4,19.8,12.3,30.267,12.3a43.422,43.422,0,0,0,38.863-62.794Z" transform="translate(-1159.944 -679.396)"/><path class="g" d="M1240.52,780.915s-25.936,15.434-40.757.522,4.042-54.08-7.411-66.88,33.347,1.969,44.126,13.111S1257.025,757.336,1240.52,780.915Z" transform="translate(-1166.399 -685.778)"/><path class="e" d="M1205.4,717.417s17.592,2.9,26.5,13.807,6.236,22.709-2.672,19.149-8.239-16.253-16.255-21.821S1199.154,715.861,1205.4,717.417Z" transform="translate(-1168.991 -687.383)"/><path class="h" d="M1272.291,781.381l-12.11-9.534s-9.018-3.865-18.295,4.767-17.006,20.485-10.307,27.958S1247.3,820.8,1247.3,820.8l27.571-36.074Z" transform="translate(-1174.545 -698.746)"/><path class="i" d="M1611.331,1077.314a13.014,13.014,0,0,1-12.145,4.877l-129.175-18.3a43.721,43.721,0,0,1-24.7-12.292c-32.481-32.361-132.8-133.1-174.255-184.3-8.1-10.021-22.1-25.186-25.052-33.6-5.946-16.955-.508-30.25,8.3-40.15,13.681-15.366,35.487-22.553,35.487-22.553l26.588,8.791,248.544,159.879a48.714,48.714,0,0,1,20.456,27.51l28.285,98.392A12.989,12.989,0,0,1,1611.331,1077.314Z" transform="translate(-1177.598 -698.746)"/><path class="j" d="M1665.2,1120.615a12.989,12.989,0,0,0,2.325-11.758l-28.285-98.392a48.706,48.706,0,0,0-19.761-27.041l-.871-.182a56.852,56.852,0,0,0-59.22,2.192c-36.3,20.98-50.643,49.614-56.287,69.941-4.068,14.652-4.681,30.1-4.637,38.809l.712.71a43.72,43.72,0,0,0,24.7,12.292l129.175,18.3A13.014,13.014,0,0,0,1665.2,1120.615Z" transform="translate(-1231.464 -742.047)"/><path class="k" d="M1610.5,1083.925a37.493,37.493,0,0,1-22.081-7.193l-111.048-80.923q-13.635-9.937-26.272-21.142L1334.771,871.51c3.427-9.674,9.158-16.679,10.187-22.138,1.723-9.141,37.276-7.877,37.276-7.877l1.892-1.848-2.123-.384,2.123-14.907h-56.765l-8.312,33.214-60.988-54.082a4.789,4.789,0,0,0-7.055.756c-6.751,9.376-10.168,21.336-5.007,36.055,2.953,8.417,16.955,23.582,25.052,33.6,41.459,51.2,141.774,151.942,174.255,184.3a43.721,43.721,0,0,0,24.7,12.292l129.175,18.3a13.015,13.015,0,0,0,12.145-4.877Z" transform="translate(-1177.598 -705.357)"/><path class="l" d="M1665.2,1133.125h-.828a37.493,37.493,0,0,1-22.081-7.193L1531.24,1045.01q-6.558-4.779-12.884-9.86a110.2,110.2,0,0,0-15.259,32.736c-4.068,14.652-4.681,30.1-4.637,38.809l.712.71a43.758,43.758,0,0,0,14.542,9.576c.676.271,1.361.521,2.051.758a43.622,43.622,0,0,0,6.013,1.6q.317.061.635.118c.486.085.972.167,1.462.237l129.175,18.3a13.505,13.505,0,0,0,1.829.137,12.881,12.881,0,0,0,3.3-.415c.138-.035.275-.075.412-.115a13.018,13.018,0,0,0,4.243-2.156q.33-.253.644-.526A13.332,13.332,0,0,0,1665.2,1133.125Z" transform="translate(-1231.464 -754.558)"/><path class="e" d="M1639.525,1048.294s-22.412-76.444-49.5-94.548-129.61-82.851-129.61-82.851-25-5.281,8.067,17.391,78.638,54.316,100.156,68.872,72.782,128.475,77.211,127.842S1639.525,1048.294,1639.525,1048.294Z" transform="translate(-1221.513 -719.742)"/><g transform="translate(104.618 80.759)"><rect class="d" width="0.668" height="273.568" transform="matrix(0.603, -0.798, 0.798, 0.603, 0, 0.533)"/></g><g transform="translate(267.207 233.219)"><path class="d" d="M1502.511,1055.018c5.676-20.448,20.1-49.247,56.581-70.333a57.5,57.5,0,0,1,59.929-2.182l-.36.561a56.852,56.852,0,0,0-59.22,2.192c-36.3,20.98-50.643,49.614-56.287,69.941-6.114,22.023-3.62,39.291-3.594,39.464C1499.56,1094.66,1496.359,1077.176,1502.511,1055.018Z" transform="translate(-1498.728 -975.087)"/></g></g></g><g transform="translate(343.276 88.755)"><path class="m" d="M1483.176,543.552,1648.1,597.811a19.021,19.021,0,0,1,12.73,21.68l-26.952,139.343a19.02,19.02,0,0,1-28.235,12.831L1451.417,682a19.022,19.022,0,0,1-9.232-19.383l16.255-103.934A19.021,19.021,0,0,1,1483.176,543.552Z" transform="translate(-1428.635 -523.681)"/><path class="n" d="M1466.288,519.578l164.923,54.259a19.021,19.021,0,0,1,12.731,21.68L1616.99,734.859a19.021,19.021,0,0,1-28.235,12.831l-154.227-89.666a19.021,19.021,0,0,1-9.232-19.383l16.255-103.934A19.021,19.021,0,0,1,1466.288,519.578Z" transform="translate(-1425.067 -518.616)"/><path class="e" d="M1482.3,557.666l71.483,25.891a5.842,5.842,0,0,1,3.737,6.649l-1.754,8.693a5.842,5.842,0,0,1-7.825,4.3l-71.11-27.362a5.842,5.842,0,0,1-3.64-6.55l1.381-7.222A5.843,5.843,0,0,1,1482.3,557.666Z" transform="translate(-1435.213 -526.792)"/><path class="e" d="M1601.033,601.13l46.357,16.449a4.6,4.6,0,0,1,2.977,5.223l-22.969,117.3a4.6,4.6,0,0,1-6.729,3.152l-42.8-23.449a4.6,4.6,0,0,1-2.321-4.835l19.417-110.3A4.6,4.6,0,0,1,1601.033,601.13Z" transform="translate(-1456.844 -535.993)"/><path class="b" d="M1612.059,612.586l32.475,12.178a3.476,3.476,0,0,1,2.2,3.9l-4.478,23.767a3.475,3.475,0,0,1-4.659,2.6l-31.784-12.2a3.476,3.476,0,0,1-2.186-3.791l3.787-23.749A3.474,3.474,0,0,1,1612.059,612.586Z" transform="translate(-1462.782 -538.422)"/><path class="n" d="M1604.99,664.3l29.6,12.139a3.475,3.475,0,0,1,2.1,3.85l-.033.179a3.475,3.475,0,0,1-4.752,2.572l-29.565-12.318a3.476,3.476,0,0,1-2.091-3.779h0A3.475,3.475,0,0,1,1604.99,664.3Z" transform="translate(-1462.068 -549.341)"/><path class="n" d="M1596.82,684.295l-.223,1.422a3.475,3.475,0,0,0,2.03,3.717l29.075,12.832a3.475,3.475,0,0,0,4.825-2.574l.259-1.466a3.475,3.475,0,0,0-2.025-3.785l-29.112-12.788A3.474,3.474,0,0,0,1596.82,684.295Z" transform="translate(-1461.298 -552.999)"/><path class="n" d="M1595.827,703.539l29.765,13.854a3.475,3.475,0,0,1,1.953,3.773l-5.159,28.3a3.474,3.474,0,0,1-5.122,2.406l-29.483-16.593a3.472,3.472,0,0,1-1.709-3.679l4.876-25.566A3.474,3.474,0,0,1,1595.827,703.539Z" transform="translate(-1459.071 -557.617)"/><path class="o" d="M1475.164,595.79l65.111,27.041a7.893,7.893,0,0,1,4.78,8.446l-9.7,65.473a7.893,7.893,0,0,1-11.618,5.756l-63.744-35.133a7.893,7.893,0,0,1-4-8.047l8.333-57.381A7.893,7.893,0,0,1,1475.164,595.79Z" transform="translate(-1431.584 -534.792)"/><g transform="translate(130.435 149.425)"><path class="h" d="M1618.785,749.515l-28.343-15.153,5.629-26.295,1.307.279-5.42,25.311,27.455,14.68Z" transform="translate(-1590.442 -708.067)"/></g><g transform="translate(128.036 153.012)"><path class="p" d="M1610.779,742.527l2.3-16.6-8.331,15,3.381-22.161-11.3,17.967v-8.9l-8.646,6.209-.78-1.086,10.762-7.728V732.1l12.253-19.483-3.229,21.165,8.193-14.746-2.48,17.918,2.456-3.67,6.6-1.716.337,1.293-6.108,1.589Z" transform="translate(-1587.4 -712.616)"/></g><path class="e" d="M511.968,641a2.444,2.444,0,0,0,1.545-1.918l5.148-34.139a2.445,2.445,0,0,0-3.667-2.466l-29.1,17.294a2.446,2.446,0,0,0-.311,3.987l6.6,5.465a2.446,2.446,0,1,0,3.117-3.77l-3.927-3.251,21.682-12.882-3.733,24.757-3.84-3.174a2.45,2.45,0,0,0-2.566-.343l-2.394,1.083,4.564-5.491a2.446,2.446,0,0,0-3.762-3.127l-11.353,13.66a2.445,2.445,0,0,0,2.887,3.791l10.682-4.83,6,4.956a2.458,2.458,0,0,0,1.56.56,2.421,2.421,0,0,0,.871-.163" transform="translate(-437.146 -508.414)"/></g><g transform="translate(194.276 192.623)"><path class="j" d="M1258.175,1065.823s-18.653-2.457-20.275,19.41-5.255,44.574,7.51,46.6,20.469-23.521,22.5-33.251S1273.583,1070.772,1258.175,1065.823Z" transform="translate(-1236.156 -738.077)"/><path class="q" d="M1280.117,1043.031s-8.921,20.679-10.138,27.371-2.432,30.209-10.137,28.993-14.6-14.958-10.948-28.16,10.138-34.286,10.138-34.286Z" transform="translate(-1238.634 -731.994)"/><path class="r" d="M1446.717,867.983,1427.3,855.5l-20.39-13.12c-47.338-.334-59.71-14.256-68.368-9.794s-8.378,25.546-12.426,49.877c-.173,1-.347,2.018-.52,3.007-4.169,23.021-11.37,42.368-14.484,50.8-3.246,8.779-23.115,58.922-25.546,65.416s-9.74,8.11-23.114,3.648-21.5-11.357-19.053-18.652c.334-1.015,1.349-3.754,2.859-7.776,9.287-24.985,37.077-99.473,35.848-118.34-1.443-21.9-10.729-12.158-11.784-37.705-.348-8.524,4.8-14.75,11.811-19.253,14-8.992,35.46-11.156,35.46-11.156,24.036-5.639,61.233,11.757,82.318,15.445s28.392,18.612,32.04,26.723C1435.547,842.611,1446.382,867.209,1446.717,867.983Z" transform="translate(-1237.595 -680.103)"/><path class="s" d="M1449.434,863.965l-20.389-13.12c-47.338-.334-59.71-14.256-68.368-9.794s-8.378,25.546-12.426,49.877c-.174,1-.347,2.018-.521,3.007h-.014s4.623-56.2,12.96-60.366,37.531-1.67,57.747,1.711,26.441,16.447,26.441,16.447Z" transform="translate(-1259.725 -688.564)"/><path class="s" d="M1316.245,864.537l2.673,14.082s-6.6,25.828-22.326,0c0,0-3.314-6.587-5.3-3.741s-29.662,99.66-27.444,105.339,5.465,16.233,12.359,19.481-9.62,6.573-17.891,0c-4.609-3.661-8.564-11.384-11.17-17.5,9.287-24.985,37.077-99.473,35.849-118.34-1.443-21.9-10.729-12.158-11.784-37.705-.348-8.524,4.8-14.75,11.811-19.253l30.423,47.245,13.642,12.84Z" transform="translate(-1238.477 -683.39)"/><path class="q" d="M1482.492,666.484c-1.282,1.536.762,4.075-1.3,6.881s-8.163,1.536-12,1.777c-1.323.08-3.581,1.483-5.986,3.313a126.6,126.6,0,0,0-9.794,8.458h-1.1l-10.743-6.935s9.46-7.375,14.577-11.209,7.669-15.085,12.011-15.994,11.5,7.816,18.411,3.728c6.761-4.008,10.168-7.669,10.929-5.6a.388.388,0,0,1,.054.133C1498.392,653.857,1483.762,664.934,1482.492,666.484Z" transform="translate(-1279.557 -650.307)"/><path class="t" d="M1487.539,666.644c-1.283,1.536.762,4.075-1.3,6.881s-8.163,1.536-12,1.777c-1.323.08-3.581,1.483-5.985,3.313l-2.792-1.656s8.751-5.559,13.24-4.61,3.795-6.146,6.748-8.043c2.391-1.523,13.134-10.088,17.1-13.24a.386.386,0,0,1,.054.133C1503.439,654.017,1488.809,665.094,1487.539,666.644Z" transform="translate(-1284.603 -650.467)"/><path class="u" d="M1449.454,691.834s-.975.962-2.619,2.592c-8.351,8.191-33.924,33.35-36.97,36.4-3.661,3.661-12.186,5.492-17.664,0-1.79-1.791-5.05-4.93-8.779-8.577-7.7-7.536-17.316-17.182-19.694-21.151-3.515-5.905,0-29.527,0-29.527s13.842,4.743,30.9,28.191c0,0,3.354,5.786,10.355,0s29.849-29.635,29.849-29.635S1451.592,674.785,1449.454,691.834Z" transform="translate(-1262.779 -654.493)"/><path class="j" d="M1362.227,769.3c2.031,4.836-2.311,10.956-16.353,15.779s-56.331,2.94-60.74-2.793,6.921-36.729,4.3-48.193-18.492-28.086-8.538-37.412,26.187-22.7,35.514-23.917,25.546-5.277,31.225,0c0,0,8.364,27.217,12.693,34.485a38.507,38.507,0,0,1,4.569,14.363c.8,6.747-.106,14.068-4.569,19.453-7.79,9.42-.949,21.939,1.523,27.364C1361.987,768.755,1362.12,769.036,1362.227,769.3Z" transform="translate(-1244.923 -654.495)"/><path class="q" d="M1320.244,848.08s6.135,12.526,12.27,17.383,9.2,11.248,6.391,10.225-9.685-6.646-8.805-4.345,3.466,10.992,0,17.383-1.891-4.447-3.316-8.487-.4,7.72-2.193,12.577-3.578-12.044-4.346-14.33-1.533,3.593-1.278,8.195-2.557,6.135-3.324,3.067-.511-12.526-2.044-13.292-.512,10.736-1.79,11.5-3.579-8.181-3.068-12.271-5.624-27.608-5.624-27.608Z" transform="translate(-1250.303 -692.091)"/><path class="u" d="M1323.013,822.72s-9.74.922-15.525,2.138-14.978,7.308-14.978,7.308-.668-1.951-1.777-5.2c-4.463-13.2-15.967-47.712-17.637-58.761-2.084-13.776,3.019-49.65,3.488-58.482.307-5.906,5.478-6.855,8.858-6.841a17.8,17.8,0,0,1,2.926.254c16.207,6.52,11.5,23.342,10.368,41.313s3.648,30.957,6.921,39.295S1323.013,822.72,1323.013,822.72Z" transform="translate(-1243.855 -661.415)"/><path class="e" d="M1343.035,684.932a15.528,15.528,0,0,1-8.891,2.563c-2.936-.147-6.29.419-7.968,3.266a38.666,38.666,0,0,1-7.573,8.478,3.05,3.05,0,0,1-4.926-1.361c-1.178-3.687-3.212-8.849-6.1-11.986-4.88-5.295.61-18.181,9.454-19.515s22.568-3.773,30.5,4.461,8.844,12.418,12.5,15.054,2.744,5.325-4.27,2.607C1350.243,686.363,1346.99,682.479,1343.035,684.932Z" transform="translate(-1250.858 -653.406)"/><path class="v" d="M55.97,70.454S48.649,100.308,66.545,132.6"/></g><g transform="translate(0 31.386)"><path class="e" d="M1655.313,527.8l1.982,3.623a1.525,1.525,0,0,0,.609.609l3.623,1.982a1.533,1.533,0,0,1,0,2.69l-3.623,1.981a1.531,1.531,0,0,0-.609.61l-1.982,3.623a1.533,1.533,0,0,1-2.69,0l-1.981-3.623a1.541,1.541,0,0,0-.61-.61l-3.623-1.981a1.533,1.533,0,0,1,0-2.69l3.623-1.982a1.534,1.534,0,0,0,.61-.609l1.981-3.623A1.533,1.533,0,0,1,1655.313,527.8Z" transform="translate(-1475.23 -547.019)"/><path class="e" d="M1534.722,431.463l1.981,3.623a1.531,1.531,0,0,0,.609.61l3.623,1.982a1.533,1.533,0,0,1,0,2.69l-3.623,1.981a1.542,1.542,0,0,0-.609.61l-1.981,3.623a1.533,1.533,0,0,1-2.691,0l-1.982-3.623a1.533,1.533,0,0,0-.609-.61l-3.623-1.981a1.533,1.533,0,0,1,0-2.69l3.623-1.982a1.523,1.523,0,0,0,.609-.61l1.982-3.623A1.533,1.533,0,0,1,1534.722,431.463Z" transform="translate(-1102.909 -430.666)"/><path class="e" d="M1144.785,495.375l1.982,3.623a1.527,1.527,0,0,0,.609.61l3.624,1.981a1.534,1.534,0,0,1,0,2.691l-3.624,1.981a1.528,1.528,0,0,0-.609.61l-1.982,3.623a1.533,1.533,0,0,1-2.69,0l-1.981-3.623a1.533,1.533,0,0,0-.61-.61l-3.623-1.981a1.534,1.534,0,0,1,0-2.691l3.623-1.981a1.532,1.532,0,0,0,.61-.61l1.981-3.623A1.533,1.533,0,0,1,1144.785,495.375Z" transform="translate(-1046.525 -419.758)"/><path class="e" d="M1081.246,755.567l1.981,3.623a1.541,1.541,0,0,0,.61.61l3.623,1.981a1.533,1.533,0,0,1,0,2.69l-3.623,1.981a1.542,1.542,0,0,0-.61.61l-1.981,3.623a1.533,1.533,0,0,1-2.69,0l-1.981-3.623a1.543,1.543,0,0,0-.61-.61l-3.623-1.981a1.533,1.533,0,0,1,0-2.69l3.623-1.981a1.543,1.543,0,0,0,.61-.61l1.981-3.623A1.533,1.533,0,0,1,1081.246,755.567Z" transform="translate(-1007.101 -499.141)"/><path class="w" d="M1223.985,618.011l1.981,3.623a1.536,1.536,0,0,0,.61.61l3.624,1.981a1.534,1.534,0,0,1,0,2.691l-3.624,1.981a1.531,1.531,0,0,0-.61.61l-1.981,3.623a1.533,1.533,0,0,1-2.69,0l-1.981-3.623a1.535,1.535,0,0,0-.61-.61l-3.623-1.981a1.533,1.533,0,0,1,0-2.691l3.623-1.981a1.539,1.539,0,0,0,.61-.61l1.981-3.623A1.533,1.533,0,0,1,1223.985,618.011Z" transform="translate(-1037.258 -470.079)"/><path class="e" d="M1723.17,893.861l1.981,3.623a1.542,1.542,0,0,0,.609.61l3.623,1.981a1.533,1.533,0,0,1,0,2.69l-3.623,1.981a1.543,1.543,0,0,0-.609.61l-1.981,3.623a1.534,1.534,0,0,1-2.691,0l-1.981-3.623a1.534,1.534,0,0,0-.609-.61l-3.623-1.981a1.533,1.533,0,0,1,0-2.69l3.623-1.981a1.533,1.533,0,0,0,.609-.61l1.981-3.623A1.534,1.534,0,0,1,1723.17,893.861Z" transform="translate(-1142.723 -528.359)"/><path class="e" d="M1348.931,1056.052l1.981,3.623a1.54,1.54,0,0,0,.61.61l3.623,1.981a1.534,1.534,0,0,1,0,2.691l-3.623,1.981a1.534,1.534,0,0,0-.61.61l-1.981,3.623a1.533,1.533,0,0,1-2.69,0l-1.982-3.623a1.525,1.525,0,0,0-.609-.61l-3.623-1.981a1.534,1.534,0,0,1,0-2.691l3.623-1.981a1.53,1.53,0,0,0,.609-.61l1.982-3.623A1.533,1.533,0,0,1,1348.931,1056.052Z" transform="translate(-1063.656 -562.626)"/><path class="x" d="M1630.078,444.4l1.981,3.623a1.53,1.53,0,0,0,.61.609l3.623,1.982a1.533,1.533,0,0,1,0,2.69l-3.623,1.981a1.537,1.537,0,0,0-.61.61l-1.981,3.623a1.533,1.533,0,0,1-2.691,0l-1.981-3.623a1.532,1.532,0,0,0-.61-.61l-3.623-1.981a1.533,1.533,0,0,1,0-2.69l3.623-1.982a1.526,1.526,0,0,0,.61-.609l1.981-3.623A1.534,1.534,0,0,1,1630.078,444.4Z" transform="translate(-1123.056 -433.4)"/><path class="j" d="M999.541,649.349l1.981,3.623a1.537,1.537,0,0,0,.61.61l3.623,1.981a1.533,1.533,0,0,1,0,2.69l-3.623,1.981a1.538,1.538,0,0,0-.61.61l-1.981,3.623a1.533,1.533,0,0,1-2.691,0l-1.981-3.623a1.536,1.536,0,0,0-.61-.61l-3.623-1.981a1.533,1.533,0,0,1,0-2.69l3.623-1.981a1.536,1.536,0,0,0,.61-.61l1.981-3.623A1.534,1.534,0,0,1,999.541,649.349Z" transform="translate(-989.839 -476.7)"/><path class="j" d="M1719.009,547.515l1.981,3.623a1.528,1.528,0,0,0,.609.609l3.623,1.982a1.533,1.533,0,0,1,0,2.69L1721.6,558.4a1.536,1.536,0,0,0-.609.61l-1.981,3.623a1.533,1.533,0,0,1-2.691,0l-1.981-3.623a1.542,1.542,0,0,0-.61-.61l-3.622-1.981a1.533,1.533,0,0,1,0-2.69l3.622-1.982a1.534,1.534,0,0,0,.61-.609l1.981-3.623A1.534,1.534,0,0,1,1719.009,547.515Z" transform="translate(-1141.844 -455.185)"/><path class="e" d="M1430.348,1132.7l1.981,3.623a1.534,1.534,0,0,0,.61.61l3.622,1.981a1.533,1.533,0,0,1,0,2.69l-3.622,1.981a1.534,1.534,0,0,0-.61.61l-1.981,3.623a1.534,1.534,0,0,1-2.691,0l-1.981-3.623a1.539,1.539,0,0,0-.61-.61l-3.623-1.981a1.533,1.533,0,0,1,0-2.69l3.623-1.981a1.539,1.539,0,0,0,.61-.61l1.981-3.623A1.534,1.534,0,0,1,1430.348,1132.7Z" transform="translate(-1080.857 -578.82)"/></g><g transform="translate(-1050.221 -463.649)"><path class="j" d="M1448.59,696.333c-8.485,8.323-34.469,33.886-37.564,36.981-3.72,3.72-12.382,5.58-17.948,0-1.819-1.819-5.131-5.01-8.92-8.715l-20.01-31.646,1.29-6.612s20.133,24.817,24.464,30.017,11.689,9.734,18.626,2.375,21-20.622,25.767-24.49,5.919-10.169,3.394-12.762-.149-6.449,4.616-.841C1445.481,684.373,1447.558,691.785,1448.59,696.333Z" transform="translate(-19.181 -1)"/><path class="j" d="M1304.343,821.891a28.186,28.186,0,0,0-13.318,7.072c-4.534-13.412-16.224-48.479-17.92-59.706-2.118-14,3.068-50.448,3.544-59.422.312-6,5.566-6.965,9-6.951-1.616,14.4-6.042,56.245-3.924,66.9,2.579,12.952,8.444,29.419,12.136,38.3s14.187,7.942,17.568,8.255S1313.9,820.031,1304.343,821.891Z" transform="translate(1 -4.99)"/></g></g><g transform="translate(889.698 262.573)"><path class="y" d="M941.319,697.3S925.411,728,941.336,733.7s15.511-1.869,15.511-1.869l5.552-18.115Z" transform="translate(-897.882 -617.943)"/><path class="y" d="M988.981,721.566s2.379,15.669,15.052,17.43-34.139,4.695-34.66-1.175S988.981,721.566,988.981,721.566Z" transform="translate(-903.843 -622.063)"/><g transform="translate(75.233 75.658)"><path class="z" d="M981.063,692.843a80.9,80.9,0,0,0,2.256,8.642,83.538,83.538,0,0,0,3.141,8.358,63.189,63.189,0,0,0,4.086,7.931,43.818,43.818,0,0,0,5.362,7.12,29.234,29.234,0,0,0,6.967,5.53,23.042,23.042,0,0,0,8.43,2.787,23.073,23.073,0,0,1-8.447-2.757,29.3,29.3,0,0,1-7-5.513,43.942,43.942,0,0,1-5.4-7.113,63.44,63.44,0,0,1-4.124-7.93,83.676,83.676,0,0,1-3.081-8.392A80.877,80.877,0,0,1,981.063,692.843Z" transform="translate(-981.063 -692.843)"/></g><g transform="translate(55.7 103.837)"><rect class="q" width="22.363" height="21.428"/><g class="aa"><path class="ab" d="M978.72,732.8c-8.807,9.459-23.545,10.734-23.545,10.734s-.463-2.261.575-8.124-6.078-10.979-5.7-10.508,33.519,2.43,33.519,2.43C982.125,728.49,987.526,723.339,978.72,732.8Z" transform="translate(-956.261 -726.461)"/></g></g><rect class="q" width="58.33" height="84.927" rx="29.165" transform="translate(44.557 25.258)"/><g transform="translate(71.142 62.764)"><ellipse class="z" cx="4.39" cy="2.922" rx="4.39" ry="2.922" transform="translate(0 9.875) rotate(-87.07)"/><ellipse class="z" cx="4.39" cy="2.922" rx="4.39" ry="2.922" transform="translate(20.678 9.332) rotate(-87.07)"/><path class="z" d="M984.379,678.038a4.482,4.482,0,0,1-3.652.769.768.768,0,1,0-.259,1.5h.04a4.93,4.93,0,0,0,2.389-.525,6.092,6.092,0,0,0,1.826-1.389.248.248,0,0,0-.325-.371Z" transform="translate(-976.746 -677.426)"/><path class="z" d="M1009.147,677.368a4.482,4.482,0,0,1-3.653.769.768.768,0,1,0-.455,1.468.731.731,0,0,0,.2.034l.04,0a4.951,4.951,0,0,0,2.389-.525,6.113,6.113,0,0,0,1.826-1.39.248.248,0,0,0-.325-.371Z" transform="translate(-980.951 -677.312)"/></g><g transform="translate(67.964 55.25)"><path class="z" d="M973.488,672.337a1.182,1.182,0,0,1-.785-2.064,7.932,7.932,0,0,1,5.279-2.011h0a7.937,7.937,0,0,1,4.156,1.171,1.181,1.181,0,0,1-1.237,2.013,5.57,5.57,0,0,0-2.919-.823h0a5.579,5.579,0,0,0-3.71,1.413A1.175,1.175,0,0,1,973.488,672.337Z" transform="translate(-972.307 -668.262)"/></g><g transform="translate(93.223 54.384)"><path class="z" d="M1011.949,671.289a1.178,1.178,0,0,1-.785-.3,5.576,5.576,0,0,0-3.708-1.409h0a5.569,5.569,0,0,0-2.92.825,1.181,1.181,0,1,1-1.239-2.012,7.929,7.929,0,0,1,4.158-1.176h0a7.933,7.933,0,0,1,5.278,2.007,1.181,1.181,0,0,1-.785,2.064Z" transform="translate(-1002.733 -667.218)"/></g><path class="z" d="M1001.684,654.739s-39.882-11.6-41.762,8.021,1.255,15.6-4.236,18.411S940.04,668.31,940.04,668.31s.011-4.34.008-10.827,4.145-17.122,16.093-22.471C970.517,626.757,999.238,631.965,1001.684,654.739Z" transform="translate(-898.864 -606.74)"/><ellipse class="ac" cx="10.306" cy="16.315" rx="10.306" ry="16.315" transform="translate(63.415 49.674)"/><path class="ac" d="M972.807,663.923l8.549,29.439a12.755,12.755,0,0,0,5.5-6.8l-8.121-24.972c-.2-.018-.394-.047-.6-.047A7.714,7.714,0,0,0,972.807,663.923Z" transform="translate(-904.428 -611.871)"/><path class="ac" d="M1002.452,665.44,1011,694.88a12.76,12.76,0,0,0,5.5-6.8l-8.121-24.972c-.2-.018-.394-.047-.6-.047A7.712,7.712,0,0,0,1002.452,665.44Z" transform="translate(-909.462 -612.129)"/><g transform="translate(62.873 49.132)"><path class="z" d="M977.027,694.607c-2.944,0-5.694-1.785-7.744-5.028a22.39,22.39,0,0,1-3.108-11.825c0-9.295,4.858-16.86,10.84-16.862h0c2.944,0,5.694,1.785,7.744,5.028a22.4,22.4,0,0,1,3.108,11.825h0a22.4,22.4,0,0,1-3.1,11.828c-2.048,3.245-4.8,5.034-7.744,5.034Zm-.008-32.63h0c-5.384,0-9.761,7.08-9.756,15.778A21.309,21.309,0,0,0,970.2,689c1.845,2.917,4.27,4.523,6.829,4.523h0c2.56,0,4.985-1.61,6.827-4.53a21.305,21.305,0,0,0,2.93-11.248h0a21.305,21.305,0,0,0-2.94-11.246C982,663.582,979.578,661.976,977.019,661.976Z" transform="translate(-966.175 -660.892)"/></g><ellipse class="ac" cx="10.306" cy="16.315" rx="10.306" ry="16.315" transform="translate(87.615 50.912)"/><g transform="translate(87.073 50.37)"><path class="z" d="M1006.177,696.1c-5.98,0-10.848-7.558-10.852-16.852a22.392,22.392,0,0,1,3.1-11.827c2.048-3.246,4.8-5.033,7.743-5.035h0c2.944,0,5.694,1.786,7.744,5.028a22.4,22.4,0,0,1,3.108,11.825h0c0,9.3-4.859,16.86-10.841,16.862Zm-.008-32.63h0c-2.56,0-4.985,1.61-6.827,4.529a21.3,21.3,0,0,0-2.93,11.249c0,8.7,4.386,15.769,9.768,15.769h0c5.384,0,9.761-7.081,9.757-15.778h0a21.306,21.306,0,0,0-2.94-11.246C1011.153,665.075,1008.728,663.468,1006.169,663.468Z" transform="translate(-995.325 -662.384)"/></g><path class="z" d="M944.393,664.024s-27.841,48.422,13.8,63.168c-41.65,3.347-57.853,9.082-52.305-25.135s25.832-95.822,76.564-65.551C1004.863,653.917,944.393,664.024,944.393,664.024Z" transform="translate(-892.886 -606.24)"/><circle class="q" cx="9.628" cy="9.628" r="9.628" transform="translate(38.413 63.128)"/><circle class="z" cx="21.732" cy="21.732" r="21.732" transform="translate(6.513)"/><g transform="translate(0 35.282)"><path class="z" d="M926.786,651.4a23.622,23.622,0,0,1-3.043,1.569,26.293,26.293,0,0,1-3.225,1.158,19.186,19.186,0,0,1-6.792.751,13.846,13.846,0,0,1-6.445-2.193,16.243,16.243,0,0,1-1.387-1.013c-.42-.388-.867-.75-1.248-1.179-.4-.412-.784-.833-1.167-1.255-.188-.213-.394-.411-.592-.617s-.4-.41-.607-.6a19.9,19.9,0,0,0-2.629-2.182,9.561,9.561,0,0,0-3.079-1.44,5.2,5.2,0,0,0-1.7-.135,4.817,4.817,0,0,0-1.637.457,7.073,7.073,0,0,0-1.433.927c-.223.178-.438.366-.657.549a2.9,2.9,0,0,1-.706.479,2.92,2.92,0,0,0,.7-.482c.218-.184.433-.374.654-.553a7.119,7.119,0,0,1,1.431-.936,4.846,4.846,0,0,1,1.643-.467,5.263,5.263,0,0,1,1.705.128,9.6,9.6,0,0,1,3.1,1.431,19.973,19.973,0,0,1,2.648,2.175c.212.193.411.4.611.6s.407.4.6.616c.387.421.774.841,1.172,1.248.381.425.827.782,1.246,1.167a16.268,16.268,0,0,0,1.383,1,13.718,13.718,0,0,0,6.4,2.144,19.087,19.087,0,0,0,6.762-.682,26.335,26.335,0,0,0,3.23-1.123A23.756,23.756,0,0,0,926.786,651.4Z" transform="translate(-890.443 -644.209)"/></g><g transform="translate(9.131 26.845)"><path class="z" d="M939.318,634.047c-2.194,1.826-4.256,3.8-6.259,5.838s-3.915,4.153-5.765,6.326A121.015,121.015,0,0,0,917.172,660a101.876,101.876,0,0,0-13.382,31.335,87.7,87.7,0,0,0-1.2,34.008,87.72,87.72,0,0,1,1.136-34.023,101.981,101.981,0,0,1,13.334-31.393,121.109,121.109,0,0,1,10.184-13.76c1.859-2.167,3.785-4.276,5.792-6.306S937.116,635.864,939.318,634.047Z" transform="translate(-901.442 -634.047)"/></g><path class="ad" d="M944.714,628.775s13.051-34.636-27-24.818" transform="translate(-895.073 -601.795)"/><g transform="translate(73.859 84.933)"><path class="ae" d="M979.415,705.35a8.074,8.074,0,1,0,16.134.672h-.013a1.4,1.4,0,0,0-1.335-1.451l-13.321-.555a1.4,1.4,0,0,0-1.451,1.333Z" transform="translate(-979.408 -704.015)"/><path class="af" d="M982.721,712.883a8.077,8.077,0,0,0,9.3.959,5.025,5.025,0,0,0-4.489-3.169A5.1,5.1,0,0,0,982.721,712.883Z" transform="translate(-979.971 -705.143)"/><path class="ag" d="M994.867,704.6l-12.519-.523c-.258,1.376.325,2.8,1.243,3.146,1.118.416,10.19.559,10.86-.128A4.8,4.8,0,0,0,994.867,704.6Z" transform="translate(-979.897 -704.026)"/></g><path class="ah" d="M952.027,687.925a8.447,8.447,0,0,0-2.614-2.526,8.639,8.639,0,0,0-3.333-1.219,11.763,11.763,0,0,1,2.961,1.749c.209.163.408.338.6.518-.087-.037-.17-.08-.261-.115a4.076,4.076,0,0,0-1.546-.312,1.782,1.782,0,0,0-1.514.881,2.675,2.675,0,0,0,.313,3.016,3.888,3.888,0,0,0,2.447,1.469,4.189,4.189,0,0,1-1.984-1.774,2.1,2.1,0,0,1-.059-2.256c.347-.592,1.184-.446,1.994-.128a11.858,11.858,0,0,1,2.318,1.311l.022.017a.462.462,0,0,0,.656-.632Z" transform="translate(-899.874 -615.714)"/><path class="ai" d="M994.058,691.832s3.185,2.839.408,5.565" transform="translate(-908.036 -617.014)"/></g><path class="aj" d="M2516.675,352.674l11.313,11.424s9.214,9.668,19.738-.855" transform="translate(-1522.972 75.626)"/></g></g></svg>